<?xml version="1.0" encoding="utf-8"?>
<!-- Generator: Adobe Illustrator 25.4.1, SVG Export Plug-In . SVG Version: 6.00 Build 0)  -->
<svg version="1.1" id="Layer_1" xmlns="http://www.w3.org/2000/svg" xmlns:xlink="http://www.w3.org/1999/xlink" x="0px" y="0px"
	 viewBox="0 0 348 104" style="enable-background:new 0 0 348 104;" xml:space="preserve">
<style type="text/css">
	.st0{filter:url(#Adobe_OpacityMaskFilter);}
	.st1{fill:#FFFFFF;}
	.st2{mask:url(#SVGID_1_);}
	.st3{fill:url(#SVGID_00000056410859501004086780000005744968105352337064_);}
	.st4{fill:url(#SVGID_00000056424772656866378100000001333532902176817577_);}
	.st5{fill:url(#SVGID_00000094589832003247207530000017016877640955290511_);}
	.st6{fill:#BC8547;}
	.st7{fill:#303030;}
	.st8{fill:none;stroke:#000000;stroke-width:0.75;stroke-miterlimit:10;}
	.st9{fill:#2A4023;}
	.st10{fill:#353535;}
</style>
<defs>
	<filter id="Adobe_OpacityMaskFilter" filterUnits="userSpaceOnUse" x="89.6" y="-3.3" width="210.7" height="36.6">
		<feColorMatrix  type="matrix" values="1 0 0 0 0  0 1 0 0 0  0 0 1 0 0  0 0 0 1 0"/>
	</filter>
</defs>
<mask maskUnits="userSpaceOnUse" x="89.6" y="-3.3" width="210.7" height="36.6" id="SVGID_1_">
	<g class="st0">
		<g>
			<path class="st1" d="M131.3,18h6.7v8.1c-1,0.7-2.1,1.3-3.3,1.6c-1.2,0.3-2.4,0.5-3.7,0.5c-1.7,0-3.2-0.3-4.5-0.8
				s-2.5-1.2-3.5-2.1c-1-0.9-1.7-2-2.2-3.2c-0.5-1.2-0.8-2.6-0.8-4c0-1.5,0.2-2.8,0.7-4.1c0.5-1.2,1.2-2.3,2.1-3.2
				c0.9-0.9,2-1.6,3.3-2.1c1.3-0.5,2.8-0.7,4.4-0.7c0.8,0,1.6,0.1,2.3,0.2c0.7,0.1,1.4,0.3,2,0.5c0.6,0.2,1.2,0.5,1.7,0.8
				c0.5,0.3,1,0.7,1.4,1l-1.2,1.8c-0.2,0.3-0.4,0.5-0.7,0.5c-0.3,0.1-0.6,0-1-0.2c-0.3-0.2-0.7-0.4-1-0.5c-0.3-0.2-0.7-0.3-1-0.4
				c-0.4-0.1-0.8-0.2-1.2-0.3c-0.4-0.1-0.9-0.1-1.5-0.1c-0.9,0-1.8,0.2-2.6,0.5c-0.8,0.3-1.4,0.8-1.9,1.3c-0.5,0.6-0.9,1.3-1.2,2.1
				c-0.3,0.8-0.4,1.7-0.4,2.7c0,1.1,0.2,2.1,0.5,2.9c0.3,0.9,0.8,1.6,1.3,2.2c0.6,0.6,1.3,1,2.1,1.3c0.8,0.3,1.7,0.5,2.7,0.5
				c0.7,0,1.3-0.1,1.8-0.2c0.5-0.1,1-0.3,1.5-0.5v-3.4h-2.1c-0.2,0-0.4-0.1-0.6-0.2c-0.1-0.1-0.2-0.3-0.2-0.5V18z"/>
			<path class="st1" d="M160.5,18c0,1.4-0.2,2.8-0.7,4c-0.5,1.2-1.2,2.3-2.1,3.2c-0.9,0.9-1.9,1.6-3.2,2.1c-1.2,0.5-2.6,0.8-4.1,0.8
				c-1.5,0-2.9-0.3-4.1-0.8c-1.2-0.5-2.3-1.2-3.2-2.1c-0.9-0.9-1.6-2-2.1-3.2c-0.5-1.2-0.7-2.6-0.7-4s0.2-2.8,0.7-4
				c0.5-1.2,1.2-2.3,2.1-3.2c0.9-0.9,2-1.6,3.2-2.1c1.2-0.5,2.6-0.8,4.1-0.8c1.5,0,2.9,0.3,4.1,0.8c1.2,0.5,2.3,1.2,3.2,2.1
				c0.9,0.9,1.6,2,2.1,3.2C160.2,15.2,160.5,16.6,160.5,18z M156.3,18c0-1-0.1-2-0.4-2.8c-0.3-0.8-0.7-1.5-1.2-2.1
				c-0.5-0.6-1.1-1-1.9-1.3c-0.7-0.3-1.6-0.5-2.5-0.5c-0.9,0-1.8,0.2-2.5,0.5c-0.7,0.3-1.4,0.7-1.9,1.3c-0.5,0.6-0.9,1.3-1.2,2.1
				c-0.3,0.8-0.4,1.7-0.4,2.8c0,1,0.1,2,0.4,2.8c0.3,0.8,0.7,1.5,1.2,2.1c0.5,0.6,1.1,1,1.9,1.3c0.7,0.3,1.6,0.5,2.5,0.5
				c0.9,0,1.8-0.2,2.5-0.5c0.7-0.3,1.3-0.7,1.9-1.3c0.5-0.6,0.9-1.3,1.2-2.1C156.2,20,156.3,19,156.3,18z"/>
			<path class="st1" d="M181.2,17.9c0,1.4-0.2,2.8-0.7,4c-0.5,1.2-1.2,2.3-2.1,3.1c-0.9,0.9-2,1.6-3.2,2.1c-1.2,0.5-2.6,0.7-4.2,0.7
				h-7.6V8h7.6c1.5,0,2.9,0.2,4.2,0.7c1.2,0.5,2.3,1.2,3.2,2.1c0.9,0.9,1.6,1.9,2.1,3.1C181,15.2,181.2,16.5,181.2,17.9z M177,17.9
				c0-1-0.1-2-0.4-2.8c-0.3-0.8-0.7-1.5-1.2-2.1c-0.5-0.6-1.1-1-1.9-1.3c-0.7-0.3-1.6-0.5-2.5-0.5h-3.5v13.4h3.5
				c0.9,0,1.8-0.2,2.5-0.5c0.7-0.3,1.4-0.7,1.9-1.3c0.5-0.6,0.9-1.3,1.2-2.1C176.8,19.9,177,19,177,17.9z"/>
			<path class="st1" d="M199.9,27.9h-3.6c-0.7,0-1.2-0.3-1.5-0.8L191,21c-0.2-0.2-0.3-0.4-0.5-0.5c-0.2-0.1-0.5-0.2-0.8-0.2h-1.4
				v7.6h-4.1V8h6.2c1.4,0,2.6,0.1,3.5,0.4c1,0.3,1.8,0.7,2.4,1.2c0.6,0.5,1.1,1.1,1.4,1.8c0.3,0.7,0.4,1.5,0.4,2.3
				c0,0.7-0.1,1.3-0.3,1.9c-0.2,0.6-0.5,1.1-0.8,1.6c-0.4,0.5-0.8,0.9-1.3,1.3c-0.5,0.4-1.1,0.7-1.8,0.9c0.3,0.1,0.5,0.3,0.7,0.5
				c0.2,0.2,0.4,0.4,0.6,0.7L199.9,27.9z M190.3,17.4c0.6,0,1.2-0.1,1.7-0.2c0.5-0.2,0.9-0.4,1.2-0.7c0.3-0.3,0.5-0.6,0.7-1
				c0.1-0.4,0.2-0.8,0.2-1.3c0-0.9-0.3-1.6-0.9-2.1c-0.6-0.5-1.5-0.8-2.8-0.8h-2.1v6.1H190.3z"/>
			<path class="st1" d="M205.7,11.2v5h6.7v3.2H206v5.2h8.5v3.2h-12.5V8h12.5v3.2H205.7z"/>
			<path class="st1" d="M225.3,20.7c0,1.1-0.1,2.1-0.4,3c-0.3,0.9-0.7,1.7-1.2,2.3c-0.5,0.6-1.2,1.1-2.1,1.5
				c-0.8,0.3-1.8,0.5-2.9,0.5c-0.5,0-1,0-1.5-0.1c-0.5-0.1-1-0.2-1.5-0.3c0-0.4,0.1-0.8,0.1-1.2c0-0.4,0.1-0.8,0.1-1.2
				c0-0.2,0.1-0.4,0.3-0.5c0.1-0.1,0.4-0.2,0.6-0.2c0.2,0,0.4,0,0.6,0.1c0.2,0.1,0.5,0.1,0.9,0.1c0.5,0,0.9-0.1,1.3-0.2
				c0.4-0.1,0.7-0.4,0.9-0.7c0.2-0.3,0.4-0.7,0.6-1.2c0.1-0.5,0.2-1.1,0.2-1.8V8h4.1V20.7z"/>
		</g>
	</g>
</mask>
<g class="st2">
	
		<radialGradient id="SVGID_00000044140915597222216540000011609210535249521066_" cx="-217.9558" cy="-498.4698" r="25.348" gradientTransform="matrix(2.8462 0 0 -0.451 798.1277 -193.4772)" gradientUnits="userSpaceOnUse">
		<stop  offset="0" style="stop-color:#CF417D"/>
		<stop  offset="1" style="stop-color:#C0296D"/>
	</radialGradient>
	
		<ellipse style="fill:url(#SVGID_00000044140915597222216540000011609210535249521066_);" cx="192.5" cy="24.9" rx="92.7" ry="8.4"/>
	
		<radialGradient id="SVGID_00000042705921411523485540000011195692154965191073_" cx="-141.8079" cy="-477.2301" r="13.2641" gradientTransform="matrix(3.1271 -4.968411e-02 -0.1158 -0.4501 653.6584 -202.329)" gradientUnits="userSpaceOnUse">
		<stop  offset="0" style="stop-color:#51B4E6"/>
		<stop  offset="6.474800e-02" style="stop-color:#51B4E6"/>
		<stop  offset="0.317" style="stop-color:#46A9DF"/>
		<stop  offset="0.7633" style="stop-color:#288DCB"/>
		<stop  offset="1" style="stop-color:#157CBF"/>
	</radialGradient>
	<path style="fill:url(#SVGID_00000042705921411523485540000011195692154965191073_);" d="M206.2,11.9c51.3-0.9,93.3,0.9,94.1,3.8
		c0.8,2.8-40.2,5.8-91.4,6.7c-51.3,0.9-93.4-0.9-94.1-3.8C114.1,15.8,155,12.7,206.2,11.9z"/>
	
		<radialGradient id="SVGID_00000153691097668358829580000002391353714691020206_" cx="-201.5553" cy="188.9316" r="31.0655" gradientTransform="matrix(2.4066 0 0 -0.956 668.9909 198.0112)" gradientUnits="userSpaceOnUse">
		<stop  offset="0" style="stop-color:#9CBE55"/>
		<stop  offset="3.956800e-02" style="stop-color:#9CBE55"/>
		<stop  offset="0.2766" style="stop-color:#89B74E"/>
		<stop  offset="0.613" style="stop-color:#73B047"/>
		<stop  offset="0.8309" style="stop-color:#6BAD44"/>
		<stop  offset="1" style="stop-color:#6BAD44"/>
	</radialGradient>
	<path style="fill:url(#SVGID_00000153691097668358829580000002391353714691020206_);" d="M159.8-3.2c39.3-0.8,72,3.8,72.6,9.9
		c0.6,6.2-30.8,11.7-70.2,12.3c-39.4,0.6-71.9-3.7-72.6-9.7C88.9,3,120.3-2.4,159.8-3.2z"/>
</g>
<g>
	<g>
		<path class="st9" d="M311.9,73.8c-0.2,0.6-0.3,1.3-0.7,1.8c-3.6,3.8-8.9,2.5-11-2.7c-0.7,0.7-1.4,1.4-2.1,2
			c-3.2,2.7-6.8,3.6-10.9,2.8c-3.7-0.7-6.4-3.3-7-6.9c-0.7-4.1,0.5-7.6,4-10.1c3.3-2.3,7.3-3.3,11.1-4.4c0.8-0.2,1.6-0.4,2.4-0.7
			c2.7-0.8,2.7-0.8,2.4-3.6c-0.5-5.6-4.8-8.6-9.5-6.7c-1.7,0.7-2.8,2.1-3.5,3.7c-0.5,1.1-1,2.3-1.5,3.5c-1.5,0.1-2.5-0.8-2.9-2.1
			c-0.6-1.8-0.4-3.5,1-4.9c1.8-1.8,4.1-2.6,6.5-3c4.1-0.8,8.1-0.7,11.8,1.5c0.9,0.5,1.7,1.3,2.6,2c2.7-1.4,2.8-2.4,0.5-4.5
			c-3.5-3.2-4.4-7.1-3-11.5c0.5-1.8,1.1-3.5,1.6-5.3c6.4,4.1,8.1,12.1,3.5,17.5c-0.7-3.2-1.4-6.2-2-9.1c-0.2,0-0.4,0.1-0.6,0.1
			c0.8,3.6,1.6,7.3,2.5,11.2c2-1.4,3.8-2.2,4.3-4.6c1.6-7.3,6.5-11.5,13.3-13.9c3-1.1,5.9-2.6,8.9-4c0.1,5.4-1.1,10.7-4.5,15.4
			c-4.2,5.6-10.3,7.1-16.9,5.9c-0.1,0-0.3-0.1-0.5-0.2c4.3-3.6,8.6-7.1,12.8-10.6c-7.3,3.8-12.6,10.2-19.4,14.8
			c2,3.4,1.8,7.1,1.8,10.7c0,3.8,0,7.7,0,11.5c0,0.7,0,1.3,0.1,2c0.4,3.1,1.8,3.7,4.5,2.2C311.6,73.6,311.7,73.7,311.9,73.8z
			 M300,56.9c-3.2,1.5-6.2,2.7-9,4.1c-1,0.5-1.9,1.3-2.6,2.2c-1.9,2.1-2.1,5.4-0.8,8c1.1,2.2,3.3,3.4,5.9,3.1
			c2.6-0.3,4.7-1.5,6.1-3.7c0.3-0.4,0.5-0.9,0.5-1.3C300.1,65.3,300,61.3,300,56.9z"/>
		<path class="st9" d="M44.1,68.1c2.6-6.8,5.1-13.1,7.5-19.4c2.1-5.4,4-10.9,6-16.3c0.2-0.7,0.4-1.4,0.5-2.1
			c0.3-2.1-0.3-3.2-2.2-4.2c-0.5-0.2-0.8-0.7-1.2-1.1c0.1-0.1,0.2-0.3,0.3-0.4c4.1,0,8.3,0,12.7,0c-0.3,0.6-0.4,1.2-0.8,1.3
			c-3.1,1.3-4.5,4-5.6,6.8c-3.8,9.5-7.6,19.1-11.3,28.7c-1.9,4.9-3.9,9.9-5.8,14.9c-0.3,0.9-0.7,1.3-1.6,1.1
			c-1.1-0.2-2.5,0.6-3.2-1.1c-1.9-4.7-4-9.4-6-14.1c-4.5-10.4-9-20.8-13.5-31.2c-1-2.2-2.3-4.1-4.7-5.1c-0.3-0.1-0.5-0.7-1-1.5
			c2.2,0,3.9,0,5.7,0c3.4,0,6.8,0,10.2,0c0.4,0,0.7,0.3,1.1,0.4c-0.2,0.3-0.3,0.8-0.6,1c-2.7,1.6-3.1,2.5-1.9,5.5
			c3.7,9.2,7.5,18.3,11.3,27.5C41.5,61.8,42.7,64.8,44.1,68.1z"/>
		<path class="st9" d="M105.6,42.7c0.1,1.9,0.2,3.7,0.2,5.1c0.9-0.7,2-1.6,3.1-2.5c3-2.6,6.6-3.4,10.4-2.7c3.3,0.6,5.7,2.6,6.7,5.8
			c0.7,2.2,1,4.5,1.1,6.8c0.2,5.1,0,10.2,0.1,15.3c0,2.2-0.4,4.7,2.6,5.6c0.2,0,0.2,0.6,0.3,1c-4.2,0-8.2,0-12.7,0
			c0.4-0.6,0.6-1.1,1-1.2c1.2-0.5,1.8-1.4,1.9-2.7c0.1-3.8,0.2-7.7,0.2-11.5c0-3,0-5.9-0.3-8.9c-0.3-3.8-2.8-6.1-6.3-6
			c-4,0-7.7,2.8-7.8,6.4c-0.1,6.6-0.1,13.2,0,19.7c0,1.3,0.6,2.4,2,2.9c0.3,0.1,0.5,0.6,1,1.2c-4.5,0-8.5,0-12.8,0
			c0.3-0.5,0.4-1,0.6-1.1c1.7-0.5,2.1-1.9,2.1-3.4c0-7.6,0-15.1,0-22.7c0-1.4-0.6-2.4-2-2.9c-0.3-0.1-0.6-0.4-0.6-0.7
			c0-0.2,0.3-0.6,0.5-0.7c2.4-1,4.8-1.9,7.2-2.8C104.5,42.6,105,42.7,105.6,42.7z"/>
		<path class="st9" d="M175.6,42.6c0.1,1,0.2,1.9,0.3,2.8c0.1,0.9,0.1,1.8,0.2,2.6c1.6-1.4,3-3,4.8-4.1c5-3.3,12-1.9,14.5,2.9
			c1,1.8,1.6,4,1.7,6.1c0.2,5.6,0.1,11.2,0.1,16.8c0,1.1,0.1,2.3,0.2,3.4c0.1,1.2,0.7,2.1,1.9,2.6c0.3,0.1,0.6,0.6,1.1,1.2
			c-4.5,0-8.5,0-12.8,0c0.3-0.5,0.4-1,0.7-1.1c1.9-0.7,2.1-2.3,2.2-3.9c0.1-4.2,0.1-8.3,0-12.5c0-2.3,0.1-4.6-0.2-6.9
			c-0.6-4.1-3-6-6.6-5.8c-4,0.2-7.3,3.1-7.4,6.8c-0.1,6.2,0,12.4,0.1,18.6c0,1.6,0.4,3.2,2.3,3.7c0.2,0.1,0.3,0.6,0.6,1.1
			c-4.3,0-8.3,0-12.6,0c0.3-0.5,0.4-1.1,0.7-1.2c1.8-0.6,2.1-2,2.1-3.5c0.1-3.9,0.1-7.8,0.1-11.7c0-3.4,0-6.8-0.1-10.2
			c0-1.6-0.3-3.1-2.2-3.6c-0.2-0.1-0.5-0.4-0.5-0.6c0-0.2,0.3-0.6,0.5-0.7c2.4-1,4.9-1.9,7.3-2.8C174.7,42.5,175.1,42.6,175.6,42.6z
			"/>
		<path class="st9" d="M94.2,73.8c-0.2,0.6-0.4,1.3-0.8,1.8c-3.6,3.7-8.9,2.4-11.1-2.7c-2,2.3-4.3,4.2-7.3,4.7
			c-1.9,0.3-4,0.4-5.8,0.1c-3.7-0.7-6.2-3.1-6.8-6.9c-0.7-4.1,0.6-7.6,4.1-10.1c3.3-2.3,7.3-3.2,11.1-4.3c0.7-0.2,1.5-0.4,2.2-0.6
			c2.9-0.9,2.9-0.9,2.5-3.9c-0.7-5.5-4.5-8.2-9.2-6.6c-1.9,0.7-3,2.1-3.8,3.8c-0.5,1.1-1,2.3-1.5,3.5c-1.6,0.1-2.5-0.8-3-2.1
			c-0.6-1.7-0.3-3.4,1-4.7c1.7-1.7,3.9-2.6,6.2-3c3.7-0.8,7.4-0.7,11,0.8c4,1.7,5.8,5.2,6,9.3c0.3,5.4,0.1,10.7,0.2,16.1
			c0,0.8,0,1.5,0.1,2.3c0.3,3.1,1.8,3.9,4.5,2.4C93.9,73.6,94.1,73.7,94.2,73.8z M82.3,56.7c-3.7,1.8-7,3.3-10.3,5.1
			c-1.8,1-2.7,2.8-3,4.9c-0.5,3.5,1.3,6.6,4.5,7.4c3.1,0.8,7.7-1.4,8.7-4.2c0.1-0.2,0.1-0.3,0.1-0.5C82.3,65.4,82.3,61.3,82.3,56.7z
			"/>
		<path class="st9" d="M226.3,52.6c-3.4,0-4-4.6-2.2-6.4c1.1-1.1,2.4-2,3.7-2.6c3.7-1.5,7.6-1.8,11.5-0.8c4.9,1.2,8,4.6,8.2,9.6
			c0.2,4.7,0.1,9.4,0.2,14.1c0,1.4,0,2.9,0,4.3c0.2,3.4,1.6,4.3,4.6,2.8c0.8,0.8,0.4,1.4-0.3,2.1c-3.7,3.6-9,2.4-10.9-2.5
			c0-0.1-0.1-0.1-0.3-0.3c-2,2.3-4.4,4.2-7.5,4.8c-4.1,0.8-8,0.3-10.8-3.1c-3.2-3.9-2.3-10.2,1.7-13.3c3.5-2.7,7.7-3.7,11.7-4.9
			c0.7-0.2,1.4-0.4,2-0.6c3-0.9,3-0.9,2.7-4c-0.5-5.3-4.5-8.1-9.1-6.5c-1.7,0.6-2.9,1.8-3.6,3.4C227.4,49.9,226.9,51.2,226.3,52.6z
			 M240.8,56.9c-3.2,1.4-6,2.6-8.8,4c-1,0.5-1.9,1.2-2.6,2c-2.1,2.4-2.4,5.1-1.2,8c0.9,2.2,2.8,3.4,5.2,3.4c3.1,0,5.5-1.4,7.1-4
			c0.2-0.3,0.3-0.6,0.3-0.9C240.8,65.3,240.8,61.3,240.8,56.9z"/>
		<path class="st9" d="M152.8,72.9c-2,2.4-4.4,4.2-7.5,4.8c-3.9,0.8-7.6,0.4-10.5-2.7c-4.1-4.4-2.5-12.1,3.3-14.9
			c3.9-1.9,8.1-3,12.2-4.3c2.8-0.9,2.8-0.9,2.4-3.9c-0.4-2.5-1.1-4.9-3.5-6.2c-3.2-1.8-7.3-0.6-9.1,2.7c-0.8,1.4-1.3,2.9-1.9,4.3
			c-1.4-0.1-2.4-0.8-2.8-2.1c-0.5-1.6-0.5-3.3,0.7-4.5c1-1,2.3-1.9,3.6-2.5c3.6-1.5,7.4-1.8,11.1-1c5.5,1.2,8.6,5,8.7,10.6
			c0.1,4.3,0,8.7,0,13c0,1.4,0,2.7,0,4.1c0.1,3.6,1.4,4.6,5.1,3.1c-0.2,0.8-0.2,1.4-0.5,1.8c-3.3,4-9.3,2.9-11-1.9
			C153,73.2,152.9,73.1,152.8,72.9z M152.7,56.9c-3.2,1.4-6.2,2.7-9,4.1c-1.1,0.5-2.1,1.4-2.9,2.4c-1.9,2.4-2,5.2-0.6,7.9
			c1.2,2.3,3.2,3.2,5.7,3c3-0.2,6.6-2.7,6.7-5C152.8,65.3,152.7,61.3,152.7,56.9z"/>
		<path class="st9" d="M235,80.4c-3.5,4.6-8.1,7.2-14.1,7.1c-9-0.2-15.2-7.2-15.6-15.8c-0.4-8.1-0.2-16.2-0.2-24.4
			c0-0.7,0-1.3,0-2.1c-1.6,0-3.1,0-4.6,0c0-0.9,0-1.6,0-2.5c4.7,0.4,6.5-3,8.2-6.4c0.8-1.6,1.2-3.3,1.9-4.9c0.2-0.4,0.6-0.7,0.9-1.1
			c0.1,0.1,0.3,0.2,0.4,0.3c0,3.9,0,7.9,0,11.9c2.6,0,5.2,0,7.8,0c0,0.9,0,1.6,0,2.5c-2.5,0-5.1,0-7.7,0c0,8.8-0.2,17.4,0.1,26
			c0.1,3.6,1.6,7,4.4,9.4c4.7,4,11.2,4,16.5,0.1c0.5-0.4,1.2-0.5,1.8-0.8C234.8,80.1,234.9,80.3,235,80.4z"/>
		<path class="st9" d="M263.6,42.7c0,1.9,0,3.7,0,5.5c0.1,0,0.2,0.1,0.3,0.1c0.6-0.8,1.2-1.7,1.9-2.5c2.2-2.6,5-3.9,8.4-3.4
			c3.1,0.4,4.8,2.8,4.1,5.9c-0.3,1.5-1.3,2.4-2.7,2.7c-1.4,0.3-2.5-0.3-3.4-1.5c-2.1-3.2-4.8-3.2-6.7,0.2c-0.9,1.6-1.5,3.5-1.6,5.2
			c-0.2,5.7-0.1,11.4,0,17.1c0,1.6,0.2,3.2,2.2,3.8c0.3,0.1,0.4,0.6,0.7,1.1c-4.4,0-8.4,0-12.8,0c0.4-0.5,0.6-1,0.9-1.2
			c1.3-0.5,1.8-1.5,1.9-2.8c0.1-1.3,0.2-2.5,0.2-3.8c0-5.7,0.1-11.4,0-17.1c0-2.1,0.5-4.6-2.6-5.4c-0.1,0-0.1-1.1,0.1-1.1
			c2.6-1,5.2-2,7.8-3C262.7,42.5,263,42.7,263.6,42.7z"/>
		<ellipse class="st9" cx="119.7" cy="86.8" rx="101.7" ry="0.4"/>
		<ellipse class="st9" cx="276.4" cy="86.8" rx="46.5" ry="0.4"/>
	</g>
</g>
<g>
	<path class="st10" d="M29,92c0.6,0,1.1,0.1,1.5,0.2c0.4,0.1,0.7,0.3,1,0.5s0.4,0.4,0.6,0.7c0.1,0.3,0.2,0.6,0.2,0.9
		c0,0.2,0,0.4-0.1,0.6s-0.1,0.4-0.3,0.5c-0.1,0.2-0.3,0.3-0.5,0.4c-0.2,0.1-0.4,0.2-0.7,0.3c0.6,0.1,1,0.4,1.3,0.7
		c0.3,0.3,0.4,0.7,0.4,1.2c0,0.4-0.1,0.7-0.2,1c-0.1,0.3-0.3,0.6-0.6,0.8c-0.3,0.2-0.6,0.4-1,0.5c-0.4,0.1-0.8,0.2-1.3,0.2h-3.3V92
		H29z M27.7,93.4v2.3h1.2c0.2,0,0.5,0,0.7-0.1c0.2,0,0.4-0.1,0.5-0.2c0.1-0.1,0.2-0.2,0.3-0.4c0.1-0.1,0.1-0.3,0.1-0.5
		c0-0.2,0-0.4-0.1-0.5s-0.1-0.3-0.3-0.4c-0.1-0.1-0.3-0.2-0.4-0.2c-0.2,0-0.4-0.1-0.6-0.1H27.7z M29.2,99.2c0.3,0,0.5,0,0.7-0.1
		c0.2-0.1,0.3-0.2,0.4-0.3c0.1-0.1,0.2-0.2,0.2-0.4c0-0.1,0.1-0.3,0.1-0.5c0-0.2,0-0.3-0.1-0.5c-0.1-0.1-0.1-0.3-0.2-0.4
		c-0.1-0.1-0.3-0.2-0.4-0.2c-0.2-0.1-0.4-0.1-0.7-0.1h-1.5v2.3H29.2z"/>
	<path class="st10" d="M44.4,100.6H43c-0.2,0-0.3,0-0.4-0.1c-0.1-0.1-0.2-0.2-0.2-0.3l-0.6-1.6h-3.4l-0.6,1.6c0,0.1-0.1,0.2-0.2,0.3
		c-0.1,0.1-0.2,0.1-0.4,0.1h-1.4l3.3-8.5h1.8L44.4,100.6z M41.4,97.3l-0.9-2.6c-0.1-0.1-0.1-0.3-0.2-0.5c-0.1-0.2-0.1-0.4-0.2-0.6
		c-0.1,0.2-0.1,0.4-0.2,0.6c-0.1,0.2-0.1,0.3-0.2,0.5l-0.9,2.6H41.4z"/>
	<path class="st10" d="M55.8,92v8.5h-0.9c-0.1,0-0.3,0-0.3-0.1c-0.1,0-0.2-0.1-0.3-0.2L50,94.9c0,0.1,0,0.3,0,0.4c0,0.1,0,0.3,0,0.4
		v4.9h-1.6V92h0.9c0.1,0,0.1,0,0.2,0s0.1,0,0.1,0c0,0,0.1,0,0.1,0.1c0,0,0.1,0.1,0.1,0.1l4.3,5.4c0-0.1,0-0.3,0-0.4
		c0-0.1,0-0.3,0-0.4V92H55.8z"/>
	<path class="st10" d="M68.2,92v8.5h-0.9c-0.1,0-0.3,0-0.3-0.1s-0.2-0.1-0.3-0.2l-4.3-5.4c0,0.1,0,0.3,0,0.4c0,0.1,0,0.3,0,0.4v4.9
		h-1.6V92h0.9c0.1,0,0.1,0,0.2,0c0.1,0,0.1,0,0.1,0s0.1,0,0.1,0.1c0,0,0.1,0.1,0.1,0.1l4.3,5.4c0-0.1,0-0.3,0-0.4c0-0.1,0-0.3,0-0.4
		V92H68.2z"/>
	<path class="st10" d="M75.1,93.4v2.2h2.8v1.3h-2.8v2.2h3.7v1.4h-5.4V92h5.4v1.4H75.1z"/>
	<path class="st10" d="M90.1,100.6h-1.6c-0.3,0-0.5-0.1-0.6-0.3l-1.6-2.6c-0.1-0.1-0.1-0.2-0.2-0.2c-0.1,0-0.2-0.1-0.4-0.1h-0.6v3.3
		h-1.8V92H86c0.6,0,1.1,0.1,1.5,0.2c0.4,0.1,0.8,0.3,1,0.5s0.5,0.5,0.6,0.8c0.1,0.3,0.2,0.6,0.2,1c0,0.3,0,0.6-0.1,0.8
		c-0.1,0.3-0.2,0.5-0.4,0.7c-0.2,0.2-0.3,0.4-0.6,0.6s-0.5,0.3-0.8,0.4c0.1,0.1,0.2,0.1,0.3,0.2c0.1,0.1,0.2,0.2,0.3,0.3L90.1,100.6
		z M86,96.1c0.3,0,0.5,0,0.7-0.1s0.4-0.2,0.5-0.3c0.1-0.1,0.2-0.3,0.3-0.5c0.1-0.2,0.1-0.4,0.1-0.6c0-0.4-0.1-0.7-0.4-0.9
		c-0.3-0.2-0.7-0.3-1.2-0.3h-0.9v2.7H86z"/>
	<path class="st10" d="M98.3,96.2h2.9v3.5c-0.4,0.3-0.9,0.6-1.4,0.7c-0.5,0.1-1,0.2-1.6,0.2c-0.7,0-1.3-0.1-1.9-0.3
		c-0.6-0.2-1.1-0.5-1.5-0.9S94.2,98.6,94,98c-0.2-0.5-0.3-1.1-0.3-1.7c0-0.6,0.1-1.2,0.3-1.8c0.2-0.5,0.5-1,0.9-1.4
		c0.4-0.4,0.9-0.7,1.4-0.9c0.6-0.2,1.2-0.3,1.9-0.3c0.4,0,0.7,0,1,0.1s0.6,0.1,0.8,0.2s0.5,0.2,0.7,0.4c0.2,0.1,0.4,0.3,0.6,0.5
		l-0.5,0.8c-0.1,0.1-0.2,0.2-0.3,0.2c-0.1,0-0.3,0-0.4-0.1c-0.1-0.1-0.3-0.2-0.4-0.2c-0.1-0.1-0.3-0.1-0.4-0.2
		c-0.2-0.1-0.3-0.1-0.5-0.1c-0.2,0-0.4,0-0.6,0c-0.4,0-0.8,0.1-1.1,0.2c-0.3,0.1-0.6,0.3-0.8,0.6c-0.2,0.3-0.4,0.6-0.5,0.9
		c-0.1,0.4-0.2,0.7-0.2,1.2c0,0.5,0.1,0.9,0.2,1.3c0.1,0.4,0.3,0.7,0.6,0.9c0.2,0.3,0.5,0.4,0.9,0.6c0.3,0.1,0.7,0.2,1.1,0.2
		c0.3,0,0.5,0,0.8-0.1s0.4-0.1,0.7-0.2v-1.4h-1c-0.1,0-0.2,0-0.3-0.1c-0.1-0.1-0.1-0.1-0.1-0.2V96.2z"/>
	<path class="st10" d="M113.3,92v8.5h-1.8v-3.7h-3.8v3.7H106V92h1.8v3.6h3.8V92H113.3z"/>
	<path class="st10" d="M125.8,100.6h-1.4c-0.2,0-0.3,0-0.4-0.1c-0.1-0.1-0.2-0.2-0.2-0.3l-0.6-1.6h-3.4l-0.6,1.6
		c0,0.1-0.1,0.2-0.2,0.3c-0.1,0.1-0.2,0.1-0.4,0.1h-1.4l3.3-8.5h1.8L125.8,100.6z M122.9,97.3l-0.9-2.6c-0.1-0.1-0.1-0.3-0.2-0.5
		c-0.1-0.2-0.1-0.4-0.2-0.6c-0.1,0.2-0.1,0.4-0.2,0.6c-0.1,0.2-0.1,0.3-0.2,0.5l-0.9,2.6H122.9z"/>
	<path class="st10" d="M135.1,93.5h-2.5v7.1h-1.8v-7.1h-2.5V92h6.8V93.5z"/>
	<path class="st10" d="M145.5,93.5H143v7.1h-1.8v-7.1h-2.5V92h6.8V93.5z"/>
	<path class="st10" d="M156.5,100.6h-1.4c-0.2,0-0.3,0-0.4-0.1c-0.1-0.1-0.2-0.2-0.2-0.3l-0.6-1.6h-3.4l-0.6,1.6
		c0,0.1-0.1,0.2-0.2,0.3c-0.1,0.1-0.2,0.1-0.4,0.1h-1.4l3.3-8.5h1.8L156.5,100.6z M153.6,97.3l-0.9-2.6c-0.1-0.1-0.1-0.3-0.2-0.5
		c-0.1-0.2-0.1-0.4-0.2-0.6c-0.1,0.2-0.1,0.4-0.2,0.6c-0.1,0.2-0.1,0.3-0.2,0.5l-0.9,2.6H153.6z"/>
	<path class="st10" d="M173.1,100.6h-1.6c-0.3,0-0.5-0.1-0.6-0.3l-1.6-2.6c-0.1-0.1-0.1-0.2-0.2-0.2c-0.1,0-0.2-0.1-0.4-0.1h-0.6
		v3.3h-1.8V92h2.7c0.6,0,1.1,0.1,1.5,0.2c0.4,0.1,0.8,0.3,1,0.5s0.5,0.5,0.6,0.8c0.1,0.3,0.2,0.6,0.2,1c0,0.3,0,0.6-0.1,0.8
		s-0.2,0.5-0.3,0.7c-0.2,0.2-0.3,0.4-0.6,0.6s-0.5,0.3-0.8,0.4c0.1,0.1,0.2,0.1,0.3,0.2c0.1,0.1,0.2,0.2,0.3,0.3L173.1,100.6z
		 M169,96.1c0.3,0,0.5,0,0.7-0.1s0.4-0.2,0.5-0.3c0.1-0.1,0.2-0.3,0.3-0.5c0.1-0.2,0.1-0.4,0.1-0.6c0-0.4-0.1-0.7-0.4-0.9
		s-0.7-0.3-1.2-0.3h-0.9v2.7H169z"/>
	<path class="st10" d="M185.4,96.3c0,0.6-0.1,1.2-0.3,1.7c-0.2,0.5-0.5,1-0.9,1.4c-0.4,0.4-0.8,0.7-1.4,0.9
		c-0.5,0.2-1.1,0.3-1.8,0.3s-1.3-0.1-1.8-0.3c-0.5-0.2-1-0.5-1.4-0.9s-0.7-0.8-0.9-1.4c-0.2-0.5-0.3-1.1-0.3-1.7
		c0-0.6,0.1-1.2,0.3-1.7c0.2-0.5,0.5-1,0.9-1.4s0.8-0.7,1.4-0.9c0.5-0.2,1.1-0.3,1.8-0.3s1.3,0.1,1.8,0.3c0.5,0.2,1,0.5,1.4,0.9
		c0.4,0.4,0.7,0.9,0.9,1.4C185.3,95.1,185.4,95.7,185.4,96.3z M183.6,96.3c0-0.4-0.1-0.8-0.2-1.2c-0.1-0.4-0.3-0.7-0.5-0.9
		s-0.5-0.4-0.8-0.6c-0.3-0.1-0.7-0.2-1.1-0.2s-0.8,0.1-1.1,0.2c-0.3,0.1-0.6,0.3-0.8,0.6s-0.4,0.6-0.5,0.9c-0.1,0.4-0.2,0.8-0.2,1.2
		c0,0.5,0.1,0.9,0.2,1.2c0.1,0.4,0.3,0.7,0.5,0.9s0.5,0.4,0.8,0.6c0.3,0.1,0.7,0.2,1.1,0.2s0.8-0.1,1.1-0.2c0.3-0.1,0.6-0.3,0.8-0.6
		s0.4-0.5,0.5-0.9C183.5,97.2,183.6,96.7,183.6,96.3z"/>
	<path class="st10" d="M197.2,100.6h-1.4c-0.2,0-0.3,0-0.4-0.1c-0.1-0.1-0.2-0.2-0.2-0.3l-0.6-1.6h-3.4l-0.6,1.6
		c0,0.1-0.1,0.2-0.2,0.3c-0.1,0.1-0.2,0.1-0.4,0.1h-1.4L192,92h1.8L197.2,100.6z M194.2,97.3l-0.9-2.6c-0.1-0.1-0.1-0.3-0.2-0.5
		c-0.1-0.2-0.1-0.4-0.2-0.6c-0.1,0.2-0.1,0.4-0.2,0.6s-0.1,0.3-0.2,0.5l-0.9,2.6H194.2z"/>
	<path class="st10" d="M208.9,96.3c0,0.6-0.1,1.2-0.3,1.7c-0.2,0.5-0.5,1-0.9,1.4c-0.4,0.4-0.8,0.7-1.4,0.9
		c-0.5,0.2-1.1,0.3-1.8,0.3h-3.3V92h3.3c0.7,0,1.3,0.1,1.8,0.3c0.5,0.2,1,0.5,1.4,0.9c0.4,0.4,0.7,0.8,0.9,1.4
		C208.8,95.1,208.9,95.7,208.9,96.3z M207.1,96.3c0-0.4-0.1-0.8-0.2-1.2s-0.3-0.7-0.5-0.9s-0.5-0.4-0.8-0.6
		c-0.3-0.1-0.7-0.2-1.1-0.2H203v5.8h1.5c0.4,0,0.8-0.1,1.1-0.2c0.3-0.1,0.6-0.3,0.8-0.6s0.4-0.6,0.5-0.9S207.1,96.7,207.1,96.3z"/>
	<path class="st10" d="M213.1,102c0,0-0.1-0.1-0.1-0.1s0-0.1,0-0.1c0,0,0-0.1,0-0.1c0,0,0.1-0.1,0.1-0.1c0,0,0.1-0.1,0.2-0.2
		c0.1-0.1,0.1-0.1,0.2-0.2c0.1-0.1,0.1-0.2,0.2-0.3c0.1-0.1,0.1-0.2,0.1-0.3c-0.1,0-0.2,0-0.4-0.1c-0.1-0.1-0.2-0.1-0.3-0.2
		c-0.1-0.1-0.1-0.2-0.2-0.3c0-0.1-0.1-0.2-0.1-0.4c0-0.1,0-0.2,0.1-0.3c0-0.1,0.1-0.2,0.2-0.3c0.1-0.1,0.2-0.1,0.3-0.2
		c0.1,0,0.2-0.1,0.4-0.1c0.2,0,0.3,0,0.4,0.1c0.1,0.1,0.2,0.1,0.3,0.2c0.1,0.1,0.1,0.2,0.2,0.3c0,0.1,0.1,0.3,0.1,0.4
		c0,0.2,0,0.4-0.1,0.6s-0.1,0.4-0.3,0.6s-0.3,0.4-0.4,0.6s-0.4,0.4-0.6,0.6L213.1,102z"/>
	<path class="st10" d="M228.5,92c0.6,0,1.1,0.1,1.5,0.2c0.4,0.1,0.7,0.3,1,0.5s0.4,0.4,0.6,0.7c0.1,0.3,0.2,0.6,0.2,0.9
		c0,0.2,0,0.4-0.1,0.6s-0.1,0.4-0.3,0.5c-0.1,0.2-0.3,0.3-0.5,0.4c-0.2,0.1-0.4,0.2-0.7,0.3c0.6,0.1,1,0.4,1.3,0.7
		c0.3,0.3,0.4,0.7,0.4,1.2c0,0.4-0.1,0.7-0.2,1c-0.1,0.3-0.3,0.6-0.6,0.8s-0.6,0.4-1,0.5c-0.4,0.1-0.8,0.2-1.3,0.2h-3.3V92H228.5z
		 M227.2,93.4v2.3h1.2c0.2,0,0.5,0,0.7-0.1c0.2,0,0.4-0.1,0.5-0.2c0.1-0.1,0.2-0.2,0.3-0.4s0.1-0.3,0.1-0.5c0-0.2,0-0.4-0.1-0.5
		s-0.1-0.3-0.3-0.4c-0.1-0.1-0.3-0.2-0.4-0.2c-0.2,0-0.4-0.1-0.6-0.1H227.2z M228.7,99.2c0.3,0,0.5,0,0.7-0.1
		c0.2-0.1,0.3-0.2,0.4-0.3c0.1-0.1,0.2-0.2,0.2-0.4c0-0.1,0.1-0.3,0.1-0.5c0-0.2,0-0.3-0.1-0.5c-0.1-0.1-0.1-0.3-0.2-0.4
		c-0.1-0.1-0.3-0.2-0.4-0.2c-0.2-0.1-0.4-0.1-0.7-0.1h-1.5v2.3H228.7z"/>
	<path class="st10" d="M243.9,100.6h-1.4c-0.2,0-0.3,0-0.4-0.1c-0.1-0.1-0.2-0.2-0.2-0.3l-0.6-1.6H238l-0.6,1.6
		c0,0.1-0.1,0.2-0.2,0.3c-0.1,0.1-0.2,0.1-0.4,0.1h-1.4l3.3-8.5h1.8L243.9,100.6z M240.9,97.3l-0.9-2.6c-0.1-0.1-0.1-0.3-0.2-0.5
		c-0.1-0.2-0.1-0.4-0.2-0.6c-0.1,0.2-0.1,0.4-0.2,0.6s-0.1,0.3-0.2,0.5l-0.9,2.6H240.9z"/>
	<path class="st10" d="M255.3,92v8.5h-0.9c-0.1,0-0.3,0-0.3-0.1c-0.1,0-0.2-0.1-0.3-0.2l-4.3-5.4c0,0.1,0,0.3,0,0.4
		c0,0.1,0,0.3,0,0.4v4.9H248V92h0.9c0.1,0,0.1,0,0.2,0s0.1,0,0.1,0s0.1,0,0.1,0.1c0,0,0.1,0.1,0.1,0.1l4.3,5.4c0-0.1,0-0.3,0-0.4
		c0-0.1,0-0.3,0-0.4V92H255.3z"/>
	<path class="st10" d="M264.5,96.2h2.9v3.5c-0.4,0.3-0.9,0.6-1.4,0.7c-0.5,0.1-1,0.2-1.6,0.2c-0.7,0-1.3-0.1-1.9-0.3
		c-0.6-0.2-1.1-0.5-1.5-0.9c-0.4-0.4-0.7-0.8-0.9-1.4c-0.2-0.5-0.3-1.1-0.3-1.7c0-0.6,0.1-1.2,0.3-1.8c0.2-0.5,0.5-1,0.9-1.4
		c0.4-0.4,0.9-0.7,1.4-0.9c0.6-0.2,1.2-0.3,1.9-0.3c0.4,0,0.7,0,1,0.1c0.3,0.1,0.6,0.1,0.8,0.2c0.3,0.1,0.5,0.2,0.7,0.4
		c0.2,0.1,0.4,0.3,0.6,0.5l-0.5,0.8c-0.1,0.1-0.2,0.2-0.3,0.2c-0.1,0-0.3,0-0.4-0.1c-0.1-0.1-0.3-0.2-0.4-0.2s-0.3-0.1-0.4-0.2
		s-0.3-0.1-0.5-0.1c-0.2,0-0.4,0-0.6,0c-0.4,0-0.8,0.1-1.1,0.2c-0.3,0.1-0.6,0.3-0.8,0.6s-0.4,0.6-0.5,0.9c-0.1,0.4-0.2,0.7-0.2,1.2
		c0,0.5,0.1,0.9,0.2,1.3c0.1,0.4,0.3,0.7,0.6,0.9c0.2,0.3,0.5,0.4,0.9,0.6c0.3,0.1,0.7,0.2,1.1,0.2c0.3,0,0.5,0,0.8-0.1
		s0.4-0.1,0.7-0.2v-1.4h-1c-0.1,0-0.2,0-0.3-0.1c-0.1-0.1-0.1-0.1-0.1-0.2V96.2z"/>
	<path class="st10" d="M279.6,100.6h-1.4c-0.2,0-0.3,0-0.4-0.1c-0.1-0.1-0.2-0.2-0.2-0.3l-0.6-1.6h-3.4l-0.6,1.6
		c0,0.1-0.1,0.2-0.2,0.3c-0.1,0.1-0.2,0.1-0.4,0.1h-1.4l3.3-8.5h1.8L279.6,100.6z M276.6,97.3l-0.9-2.6c-0.1-0.1-0.1-0.3-0.2-0.5
		c-0.1-0.2-0.1-0.4-0.2-0.6c-0.1,0.2-0.1,0.4-0.2,0.6s-0.1,0.3-0.2,0.5l-0.9,2.6H276.6z"/>
	<path class="st10" d="M288.7,99.1v1.4h-5.1V92h1.8v7.1H288.7z"/>
	<path class="st10" d="M301.1,96.3c0,0.6-0.1,1.2-0.3,1.7c-0.2,0.5-0.5,1-0.9,1.4c-0.4,0.4-0.8,0.7-1.4,0.9
		c-0.5,0.2-1.1,0.3-1.8,0.3s-1.3-0.1-1.8-0.3c-0.5-0.2-1-0.5-1.4-0.9s-0.7-0.8-0.9-1.4c-0.2-0.5-0.3-1.1-0.3-1.7
		c0-0.6,0.1-1.2,0.3-1.7c0.2-0.5,0.5-1,0.9-1.4s0.8-0.7,1.4-0.9c0.5-0.2,1.1-0.3,1.8-0.3s1.3,0.1,1.8,0.3c0.5,0.2,1,0.5,1.4,0.9
		c0.4,0.4,0.7,0.9,0.9,1.4C301,95.1,301.1,95.7,301.1,96.3z M299.3,96.3c0-0.4-0.1-0.8-0.2-1.2c-0.1-0.4-0.3-0.7-0.5-0.9
		s-0.5-0.4-0.8-0.6c-0.3-0.1-0.7-0.2-1.1-0.2s-0.8,0.1-1.1,0.2c-0.3,0.1-0.6,0.3-0.8,0.6s-0.4,0.6-0.5,0.9c-0.1,0.4-0.2,0.8-0.2,1.2
		c0,0.5,0.1,0.9,0.2,1.2c0.1,0.4,0.3,0.7,0.5,0.9s0.5,0.4,0.8,0.6c0.3,0.1,0.7,0.2,1.1,0.2s0.8-0.1,1.1-0.2c0.3-0.1,0.6-0.3,0.8-0.6
		s0.4-0.5,0.5-0.9C299.2,97.2,299.3,96.7,299.3,96.3z"/>
	<path class="st10" d="M312.5,100.6h-1.6c-0.3,0-0.5-0.1-0.6-0.3l-1.6-2.6c-0.1-0.1-0.1-0.2-0.2-0.2c-0.1,0-0.2-0.1-0.4-0.1h-0.6
		v3.3h-1.8V92h2.7c0.6,0,1.1,0.1,1.5,0.2c0.4,0.1,0.8,0.3,1,0.5s0.5,0.5,0.6,0.8c0.1,0.3,0.2,0.6,0.2,1c0,0.3,0,0.6-0.1,0.8
		s-0.2,0.5-0.3,0.7c-0.2,0.2-0.3,0.4-0.6,0.6s-0.5,0.3-0.8,0.4c0.1,0.1,0.2,0.1,0.3,0.2c0.1,0.1,0.2,0.2,0.3,0.3L312.5,100.6z
		 M308.3,96.1c0.3,0,0.5,0,0.7-0.1s0.4-0.2,0.5-0.3c0.1-0.1,0.2-0.3,0.3-0.5c0.1-0.2,0.1-0.4,0.1-0.6c0-0.4-0.1-0.7-0.4-0.9
		s-0.7-0.3-1.2-0.3h-0.9v2.7H308.3z"/>
	<path class="st10" d="M318.4,93.4v2.2h2.8v1.3h-2.8v2.2h3.7v1.4h-5.4V92h5.4v1.4H318.4z"/>
</g>
</svg>
